<svg width="28" height="28" viewBox="0 0 28 28" fill="none" xmlns="http://www.w3.org/2000/svg">
<path d="M15.4 23.8C15.4001 24.0386 15.4612 24.2731 15.5774 24.4815C15.6936 24.6898 15.8612 24.8649 16.0641 24.9903C16.267 25.1157 16.4987 25.1871 16.737 25.1979C16.9753 25.2086 17.2124 25.1583 17.4258 25.0516L23.0258 22.2516C23.2583 22.1354 23.4538 21.9568 23.5906 21.7358C23.7273 21.5147 23.7998 21.26 23.8 21V12.9304C23.7998 12.6919 23.7387 12.4573 23.6225 12.249C23.5063 12.0407 23.3387 11.8655 23.1358 11.7402C22.9329 11.6148 22.7012 11.5433 22.4629 11.5326C22.2246 11.5219 21.9875 11.5722 21.7742 11.6788L16.1742 14.4788C15.9416 14.595 15.7461 14.7736 15.6093 14.9947C15.4726 15.2158 15.4001 15.4705 15.4 15.7304V23.8ZM21.2954 8.78643C21.5276 8.67004 21.7229 8.49133 21.8593 8.27029C21.9958 8.04925 22.0681 7.7946 22.0681 7.53483C22.0681 7.27506 21.9958 7.02042 21.8593 6.79938C21.7229 6.57834 21.5276 6.39963 21.2954 6.28323L14.6258 2.94843C14.4314 2.85133 14.2172 2.80078 14 2.80078C13.7827 2.80078 13.5685 2.85133 13.3742 2.94843L6.70455 6.28323C6.47232 6.39963 6.27705 6.57834 6.14058 6.79938C6.00412 7.02042 5.93184 7.27506 5.93184 7.53483C5.93184 7.7946 6.00412 8.04925 6.14058 8.27029C6.27705 8.49133 6.47232 8.67004 6.70455 8.78643L13.3742 12.1212C13.5685 12.2183 13.7827 12.2689 14 12.2689C14.2172 12.2689 14.4314 12.2183 14.6258 12.1212L21.2954 8.78643ZM6.22575 11.6788C6.01236 11.5722 5.77527 11.5219 5.53696 11.5326C5.29865 11.5433 5.06704 11.6148 4.8641 11.7402C4.66116 11.8655 4.49363 12.0407 4.37739 12.249C4.26116 12.4573 4.20008 12.6919 4.19995 12.9304V21C4.20009 21.26 4.27259 21.5147 4.40932 21.7358C4.54606 21.9568 4.74164 22.1354 4.97415 22.2516L10.5742 25.0516C10.7875 25.1583 11.0246 25.2086 11.2629 25.1979C11.5012 25.1871 11.7329 25.1157 11.9358 24.9903C12.1387 24.8649 12.3063 24.6898 12.4225 24.4815C12.5387 24.2731 12.5998 24.0386 12.6 23.8V15.7304C12.5998 15.4705 12.5273 15.2158 12.3906 14.9947C12.2538 14.7736 12.0583 14.595 11.8258 14.4788L6.22575 11.6788Z" fill="black"/>
</svg>
