<svg width="28" height="28" viewBox="0 0 28 28" fill="none" xmlns="http://www.w3.org/2000/svg">
<path d="M11.8 22C11.8 22.7956 11.5471 23.5587 11.0971 24.1213C10.647 24.6839 10.0365 25 9.4 25C8.76348 25 8.15303 24.6839 7.70294 24.1213C7.25286 23.5587 7 22.7956 7 22C7 21.2044 7.25286 20.4413 7.70294 19.8787C8.15303 19.3161 8.76348 19 9.4 19C10.0365 19 10.647 19.3161 11.0971 19.8787C11.5471 20.4413 11.8 21.2044 11.8 22ZM23 22C23 22.7956 22.7471 23.5587 22.2971 24.1213C21.847 24.6839 21.2365 25 20.6 25C19.9635 25 19.353 24.6839 18.9029 24.1213C18.4529 23.5587 18.2 22.7956 18.2 22C18.2 21.2044 18.4529 20.4413 18.9029 19.8787C19.353 19.3161 19.9635 19 20.6 19C21.2365 19 21.847 19.3161 22.2971 19.8787C22.7471 20.4413 23 21.2044 23 22Z" fill="black"/>
<path d="M4.39927 6C4.02796 6 3.67187 6.1475 3.40932 6.41005C3.14677 6.6726 2.99927 7.0287 2.99927 7.4V21.4C2.99927 21.7713 3.14677 22.1274 3.40932 22.3899C3.67187 22.6525 4.02796 22.8 4.39927 22.8H5.86927C6.02993 22.0088 6.45918 21.2975 7.08429 20.7865C7.7094 20.2756 8.49192 19.9965 9.29927 19.9965C10.1066 19.9965 10.8891 20.2756 11.5142 20.7865C12.1394 21.2975 12.5686 22.0088 12.7293 22.8H14.1993C14.5706 22.8 14.9267 22.6525 15.1892 22.3899C15.4518 22.1274 15.5993 21.7713 15.5993 21.4V7.4C15.5993 7.0287 15.4518 6.6726 15.1892 6.41005C14.9267 6.1475 14.5706 6 14.1993 6H4.39927ZM19.7993 10.2C19.428 10.2 19.0719 10.3475 18.8093 10.6101C18.5468 10.8726 18.3993 11.2287 18.3993 11.6V20.07C18.8497 19.978 19.3139 19.9756 19.7652 20.063C20.2166 20.1504 20.6463 20.3259 21.0298 20.5794C21.4134 20.8329 21.7432 21.1595 22.0005 21.5405C22.2577 21.9216 22.4374 22.3495 22.5293 22.8H23.9993C24.3706 22.8 24.7267 22.6525 24.9892 22.3899C25.2518 22.1274 25.3993 21.7713 25.3993 21.4L25.1985 14.4C25.1984 14.0288 25.1985 10.4 25.1985 10.4H22.1985C22.1985 10.4 21.5705 10.2001 21.1993 10.2H19.7993Z" fill="black"/>
</svg>
