<svg width="28" height="28" viewBox="0 0 28 28" fill="none" xmlns="http://www.w3.org/2000/svg">
<path fill-rule="evenodd" clip-rule="evenodd" d="M5.60005 2.7998C4.85744 2.7998 4.14525 3.0948 3.62015 3.61991C3.09505 4.14501 2.80005 4.8572 2.80005 5.5998V20.9998C2.80005 22.1137 3.24255 23.182 4.0302 23.9697C4.81785 24.7573 5.88614 25.1998 7.00005 25.1998C8.11396 25.1998 9.18224 24.7573 9.9699 23.9697C10.7575 23.182 11.2 22.1137 11.2 20.9998V5.5998C11.2 4.8572 10.905 4.14501 10.3799 3.61991C9.85485 3.0948 9.14265 2.7998 8.40005 2.7998H5.60005ZM7.00005 22.3998C7.37135 22.3998 7.72745 22.2523 7.99 21.9898C8.25255 21.7272 8.40005 21.3711 8.40005 20.9998C8.40005 20.6285 8.25255 20.2724 7.99 20.0099C7.72745 19.7473 7.37135 19.5998 7.00005 19.5998C6.62875 19.5998 6.27265 19.7473 6.0101 20.0099C5.74755 20.2724 5.60005 20.6285 5.60005 20.9998C5.60005 21.3711 5.74755 21.7272 6.0101 21.9898C6.27265 22.2523 6.62875 22.3998 7.00005 22.3998ZM14 19.94L20.86 13.08C21.385 12.5549 21.6798 11.8429 21.6798 11.1004C21.6798 10.3579 21.385 9.64588 20.86 9.1208L18.879 7.1398C18.354 6.61489 17.6419 6.32 16.8994 6.32C16.157 6.32 15.4449 6.61489 14.9198 7.1398L14 8.0596V19.94ZM22.4 25.1998H12.6994L21.0994 16.7998H22.4C23.1427 16.7998 23.8548 17.0948 24.3799 17.6199C24.905 18.145 25.2 18.8572 25.2 19.5998V22.3998C25.2 23.1424 24.905 23.8546 24.3799 24.3797C23.8548 24.9048 23.1427 25.1998 22.4 25.1998Z" fill="#282938"/>
</svg>
