<svg width="28" height="28" viewBox="0 0 28 28" fill="none" xmlns="http://www.w3.org/2000/svg">
<path fill-rule="evenodd" clip-rule="evenodd" d="M14 25.1998C16.9705 25.1998 19.8192 24.0198 21.9196 21.9194C24.0201 19.819 25.2 16.9702 25.2 13.9998C25.2 11.0294 24.0201 8.18062 21.9196 6.08021C19.8192 3.9798 16.9705 2.7998 14 2.7998C11.0296 2.7998 8.18086 3.9798 6.08045 6.08021C3.98005 8.18062 2.80005 11.0294 2.80005 13.9998C2.80005 16.9702 3.98005 19.819 6.08045 21.9194C8.18086 24.0198 11.0296 25.1998 14 25.1998ZM6.06485 11.2376C6.58466 9.74901 7.51215 8.43635 8.74165 7.4492C9.11685 8.0218 9.76365 8.3998 10.5 8.3998C11.057 8.3998 11.5911 8.62105 11.985 9.01488C12.3788 9.40871 12.6 9.94285 12.6 10.4998V11.1998C12.6 11.9424 12.895 12.6546 13.4201 13.1797C13.9453 13.7048 14.6574 13.9998 15.4 13.9998C16.1427 13.9998 16.8548 13.7048 17.3799 13.1797C17.905 12.6546 18.2 11.9424 18.2 11.1998C18.1998 10.5732 18.4098 9.96462 18.7964 9.47146C19.1829 8.9783 19.7237 8.62905 20.3322 8.4796C21.6683 10.0079 22.4032 11.9698 22.4 13.9998C22.4 14.4758 22.3608 14.9448 22.2838 15.3998H21C20.2574 15.3998 19.5453 15.6948 19.0201 16.2199C18.495 16.745 18.2 17.4572 18.2 18.1998V21.2756C16.9237 22.0141 15.4747 22.402 14 22.3998V19.5998C14 18.8572 13.705 18.145 13.1799 17.6199C12.6548 17.0948 11.9427 16.7998 11.2 16.7998C10.4574 16.7998 9.74525 16.5048 9.22015 15.9797C8.69505 15.4546 8.40005 14.7424 8.40005 13.9998C8.4003 13.3376 8.16584 12.6967 7.73831 12.191C7.31078 11.6853 6.71786 11.3475 6.06485 11.2376Z" fill="black"/>
</svg>
