<svg width="28" height="28" viewBox="0 0 28 28" fill="none" xmlns="http://www.w3.org/2000/svg">
<path fill-rule="evenodd" clip-rule="evenodd" d="M15.8201 1.46485C16.1043 1.55423 16.3526 1.73194 16.5288 1.97215C16.7051 2.21235 16.8001 2.50252 16.8001 2.80045V9.80045H22.4001C22.6562 9.80034 22.9074 9.87047 23.1264 10.0032C23.3454 10.1359 23.5238 10.3262 23.6422 10.5533C23.7605 10.7804 23.8144 11.0356 23.7978 11.2911C23.7812 11.5467 23.6948 11.7928 23.5481 12.0027L13.7481 26.0027C13.5775 26.247 13.3334 26.4306 13.0514 26.5266C12.7693 26.6227 12.4639 26.6262 12.1797 26.5367C11.8954 26.4472 11.6472 26.2694 11.471 26.0291C11.2948 25.7887 11.1999 25.4984 11.2001 25.2005V18.2004H5.60009C5.344 18.2006 5.09279 18.1304 4.87379 17.9977C4.65479 17.865 4.4764 17.6747 4.35802 17.4476C4.23964 17.2205 4.18582 16.9653 4.2024 16.7098C4.21899 16.4542 4.30535 16.2081 4.45209 15.9983L14.2521 1.99825C14.4229 1.75435 14.667 1.57127 14.949 1.4756C15.231 1.37993 15.5361 1.37665 15.8201 1.46625V1.46485Z" fill="black"/>
</svg>
