<svg width="40" height="40" viewBox="0 0 40 40" fill="none" xmlns="http://www.w3.org/2000/svg">
<mask id="mask0_2628_256" style="mask-type:alpha" maskUnits="userSpaceOnUse" x="0" y="0" width="40" height="40">
<rect width="40" height="40" rx="5" fill="#2405F2"/>
</mask>
<g mask="url(#mask0_2628_256)">
<rect width="40" height="40" rx="5" fill="#2405F2"/>
<rect x="-31" y="14" width="40" height="40" rx="5" fill="#FCD980"/>
</g>
<path d="M19.1392 25.84C20.4192 24.7733 21.4392 23.8867 22.1992 23.18C22.9592 22.46 23.5926 21.7133 24.0992 20.94C24.6059 20.1667 24.8592 19.4067 24.8592 18.66C24.8592 17.98 24.6992 17.4467 24.3792 17.06C24.0592 16.6733 23.5659 16.48 22.8992 16.48C22.2326 16.48 21.7192 16.7067 21.3592 17.16C20.9992 17.6 20.8126 18.2067 20.7992 18.98H18.0792C18.1326 17.38 18.6059 16.1667 19.4992 15.34C20.4059 14.5133 21.5526 14.1 22.9392 14.1C24.4592 14.1 25.6259 14.5067 26.4392 15.32C27.2526 16.12 27.6592 17.18 27.6592 18.5C27.6592 19.54 27.3792 20.5333 26.8192 21.48C26.2592 22.4267 25.6192 23.2533 24.8992 23.96C24.1792 24.6533 23.2392 25.4933 22.0792 26.48H27.9792V28.8H18.0992V26.72L19.1392 25.84Z" fill="white"/>
</svg>
