<svg width="40" height="40" viewBox="0 0 40 40" fill="none" xmlns="http://www.w3.org/2000/svg">
<mask id="mask0_2628_266" style="mask-type:alpha" maskUnits="userSpaceOnUse" x="0" y="0" width="40" height="40">
<rect width="40" height="40" rx="5" fill="#2405F2"/>
</mask>
<g mask="url(#mask0_2628_266)">
<rect width="40" height="40" rx="5" fill="#2405F2"/>
<rect x="-31" y="14" width="40" height="40" rx="5" fill="#FCD980"/>
</g>
<path d="M28.0592 16.84H21.5792V20.26C21.8592 19.9133 22.2592 19.6333 22.7792 19.42C23.2992 19.1933 23.8526 19.08 24.4392 19.08C25.5059 19.08 26.3792 19.3133 27.0592 19.78C27.7392 20.2467 28.2326 20.8467 28.5392 21.58C28.8459 22.3 28.9992 23.0733 28.9992 23.9C28.9992 25.4333 28.5592 26.6667 27.6792 27.6C26.8126 28.5333 25.5726 29 23.9592 29C22.4392 29 21.2259 28.62 20.3192 27.86C19.4126 27.1 18.8992 26.1067 18.7792 24.88H21.4992C21.6192 25.4133 21.8859 25.84 22.2992 26.16C22.7259 26.48 23.2659 26.64 23.9192 26.64C24.7059 26.64 25.2992 26.3933 25.6992 25.9C26.0992 25.4067 26.2992 24.7533 26.2992 23.94C26.2992 23.1133 26.0926 22.4867 25.6792 22.06C25.2792 21.62 24.6859 21.4 23.8992 21.4C23.3392 21.4 22.8726 21.54 22.4992 21.82C22.1259 22.1 21.8592 22.4733 21.6992 22.94H19.0192V14.38H28.0592V16.84Z" fill="white"/>
</svg>
