<svg width="40" height="40" viewBox="0 0 40 40" fill="none" xmlns="http://www.w3.org/2000/svg">
<mask id="mask0_2628_235" style="mask-type:alpha" maskUnits="userSpaceOnUse" x="0" y="0" width="40" height="40">
<rect width="40" height="40" rx="5" fill="#2405F2"/>
</mask>
<g mask="url(#mask0_2628_235)">
<rect width="40" height="40" rx="5" fill="#2405F2"/>
<rect x="-31" y="14" width="40" height="40" rx="5" fill="#FCD980"/>
</g>
<path d="M18.2992 18.26C18.3659 16.9267 18.8326 15.9 19.6992 15.18C20.5792 14.4467 21.7326 14.08 23.1592 14.08C24.1326 14.08 24.9659 14.2533 25.6592 14.6C26.3526 14.9333 26.8726 15.3933 27.2192 15.98C27.5792 16.5533 27.7592 17.2067 27.7592 17.94C27.7592 18.78 27.5392 19.4933 27.0992 20.08C26.6726 20.6533 26.1592 21.04 25.5592 21.24V21.32C26.3326 21.56 26.9326 21.9867 27.3592 22.6C27.7992 23.2133 28.0192 24 28.0192 24.96C28.0192 25.76 27.8326 26.4733 27.4592 27.1C27.0992 27.7267 26.5592 28.22 25.8392 28.58C25.1326 28.9267 24.2792 29.1 23.2792 29.1C21.7726 29.1 20.5459 28.72 19.5992 27.96C18.6526 27.2 18.1526 26.08 18.0992 24.6H20.8192C20.8459 25.2533 21.0659 25.78 21.4792 26.18C21.9059 26.5667 22.4859 26.76 23.2192 26.76C23.8992 26.76 24.4192 26.5733 24.7792 26.2C25.1526 25.8133 25.3392 25.32 25.3392 24.72C25.3392 23.92 25.0859 23.3467 24.5792 23C24.0726 22.6533 23.2859 22.48 22.2192 22.48H21.6392V20.18H22.2192C24.1126 20.18 25.0592 19.5467 25.0592 18.28C25.0592 17.7067 24.8859 17.26 24.5392 16.94C24.2059 16.62 23.7192 16.46 23.0792 16.46C22.4526 16.46 21.9659 16.6333 21.6192 16.98C21.2859 17.3133 21.0926 17.74 21.0392 18.26H18.2992Z" fill="white"/>
</svg>
