<svg width="40" height="40" viewBox="0 0 40 40" fill="none" xmlns="http://www.w3.org/2000/svg">
<mask id="mask0_2628_246" style="mask-type:alpha" maskUnits="userSpaceOnUse" x="0" y="0" width="40" height="40">
<rect width="40" height="40" rx="5" fill="#2405F2"/>
</mask>
<g mask="url(#mask0_2628_246)">
<rect width="40" height="40" rx="5" fill="#2405F2"/>
<rect x="-31" y="14" width="40" height="40" rx="5" fill="#FCD980"/>
</g>
<path d="M25.8192 18.06C25.6859 17.5 25.4526 17.08 25.1192 16.8C24.7992 16.52 24.3326 16.38 23.7192 16.38C22.7992 16.38 22.1192 16.7533 21.6792 17.5C21.2526 18.2333 21.0326 19.4333 21.0192 21.1C21.3392 20.5667 21.8059 20.1533 22.4192 19.86C23.0326 19.5533 23.6992 19.4 24.4192 19.4C25.2859 19.4 26.0526 19.5867 26.7192 19.96C27.3859 20.3333 27.9059 20.88 28.2792 21.6C28.6526 22.3067 28.8392 23.16 28.8392 24.16C28.8392 25.1067 28.6459 25.9533 28.2592 26.7C27.8859 27.4333 27.3326 28.0067 26.5992 28.42C25.8659 28.8333 24.9926 29.04 23.9792 29.04C22.5926 29.04 21.4992 28.7333 20.6992 28.12C19.9126 27.5067 19.3592 26.6533 19.0392 25.56C18.7326 24.4533 18.5792 23.0933 18.5792 21.48C18.5792 19.04 18.9992 17.2 19.8392 15.96C20.6792 14.7067 22.0059 14.08 23.8192 14.08C25.2192 14.08 26.3059 14.46 27.0792 15.22C27.8526 15.98 28.2992 16.9267 28.4192 18.06H25.8192ZM23.7792 21.7C23.0726 21.7 22.4792 21.9067 21.9992 22.32C21.5192 22.7333 21.2792 23.3333 21.2792 24.12C21.2792 24.9067 21.4992 25.5267 21.9392 25.98C22.3926 26.4333 23.0259 26.66 23.8392 26.66C24.5592 26.66 25.1259 26.44 25.5392 26C25.9659 25.56 26.1792 24.9667 26.1792 24.22C26.1792 23.4467 25.9726 22.8333 25.5592 22.38C25.1592 21.9267 24.5659 21.7 23.7792 21.7Z" fill="white"/>
</svg>
